<svg width="118" height="20" viewBox="0 0 118 20" fill="none" xmlns="http://www.w3.org/2000/svg">
<path d="M11.64 0.164518H8.064L5.83199 10.0118L3.624 0.164518H0V15.8402H2.352V4.30083L5.112 15.8402H6.50399L9.288 4.30083V15.8402H11.64V0.164518ZM21.432 4.15982L19.824 12.1269L18.072 4.15982H15.72L18.336 14.8296C18.456 15.3232 18.504 15.5817 18.504 15.8637C18.504 17.0153 17.688 17.7673 16.44 17.7673C16.392 17.7673 16.224 17.7673 16.08 17.7438V20C19.44 20 20.328 19.1774 21.144 15.3467L23.736 4.15982H21.432ZM36.144 9.49472H37.776C39.384 9.49472 40.392 9.18919 41.136 8.48414C42 7.68508 42.408 6.50999 42.408 4.81787C42.408 3.14924 42 1.97415 41.136 1.17509C40.392 0.470041 39.384 0.164518 37.776 0.164518H33.672V15.8402H36.144V9.49472ZM36.144 7.26205V2.39718H37.224C39.216 2.39718 39.84 2.98473 39.84 4.81787C39.84 6.67451 39.216 7.26205 37.224 7.26205H36.144ZM53.736 8.20212C53.736 6.36898 53.52 5.56992 52.8 4.86487C52.152 4.25382 51.216 3.9248 50.088 3.9248C48.936 3.9248 48 4.25382 47.352 4.86487C46.656 5.56992 46.416 6.36898 46.416 8.20212V11.7979C46.416 13.631 46.656 14.4301 47.352 15.1351C48 15.7462 48.936 16.0752 50.088 16.0752C51.216 16.0752 52.152 15.7462 52.8 15.1351C53.52 14.4301 53.736 13.631 53.736 11.7979V8.20212ZM48.648 8.06111C48.648 6.5805 49.08 5.92245 50.064 5.92245C51.072 5.92245 51.504 6.557 51.504 8.06111V11.9389C51.504 13.4195 51.072 14.0776 50.064 14.0776C49.08 14.0776 48.648 13.4195 48.648 11.9389V8.06111ZM58.128 4.15982V15.8402H60.36V8.81316C60.36 7.70858 60.432 7.33256 60.744 6.93303C61.056 6.53349 61.536 6.32198 62.136 6.32198C62.496 6.32198 62.784 6.36898 63.216 6.53349V3.9953C61.824 3.9953 60.96 4.62985 60.36 6.18097V4.15982H58.128ZM72.696 4.15982H70.656V0.963577H68.424V4.15982H66.696V6.11046H68.424V12.5734C68.424 14.0541 68.544 14.6181 68.976 15.1351C69.456 15.7227 70.272 16.0047 71.4 16.0047C71.904 16.0047 72.288 15.9577 72.912 15.8402V13.866C72.552 13.9836 72.336 14.0071 72.048 14.0071C71.064 14.0071 70.656 13.5135 70.656 12.3384V6.11046H72.696V4.15982ZM81.24 4.15982H79.368V3.52527C79.368 2.37368 79.632 1.99765 80.424 1.99765C80.736 1.99765 80.808 2.02116 81.432 2.20917V0.164518C80.832 0.0470066 80.448 0 79.944 0C79.008 0 78.36 0.188019 77.88 0.587547C77.304 1.05758 77.136 1.64513 77.136 3.05523V4.15982H75.528V6.11046H77.136V15.8402H79.368V6.11046H81.24V4.15982ZM92.304 8.20212C92.304 6.36898 92.088 5.56992 91.368 4.86487C90.72 4.25382 89.784 3.9248 88.656 3.9248C87.504 3.9248 86.568 4.25382 85.92 4.86487C85.224 5.56992 84.984 6.36898 84.984 8.20212V11.7979C84.984 13.631 85.224 14.4301 85.92 15.1351C86.568 15.7462 87.504 16.0752 88.656 16.0752C89.784 16.0752 90.72 15.7462 91.368 15.1351C92.088 14.4301 92.304 13.631 92.304 11.7979V8.20212ZM87.216 8.06111C87.216 6.5805 87.648 5.92245 88.632 5.92245C89.64 5.92245 90.072 6.557 90.072 8.06111V11.9389C90.072 13.4195 89.64 14.0776 88.632 14.0776C87.648 14.0776 87.216 13.4195 87.216 11.9389V8.06111ZM98.928 0.164518H96.696V15.8402H98.928V0.164518ZM105.648 4.15982H103.416V15.8402H105.648V4.15982ZM105.648 0.164518H103.416V2.44419H105.648V0.164518ZM117.384 8.20212C117.384 6.36898 117.168 5.56992 116.448 4.86487C115.8 4.25382 114.864 3.9248 113.736 3.9248C112.584 3.9248 111.648 4.25382 111 4.86487C110.304 5.56992 110.064 6.36898 110.064 8.20212V11.7979C110.064 13.631 110.304 14.4301 111 15.1351C111.648 15.7462 112.584 16.0752 113.736 16.0752C114.864 16.0752 115.8 15.7462 116.448 15.1351C117.168 14.4301 117.384 13.631 117.384 11.7979V8.20212ZM112.296 8.06111C112.296 6.5805 112.728 5.92245 113.712 5.92245C114.72 5.92245 115.152 6.557 115.152 8.06111V11.9389C115.152 13.4195 114.72 14.0776 113.712 14.0776C112.728 14.0776 112.296 13.4195 112.296 11.9389V8.06111Z" fill="#333333"/>
</svg>
